#!OML:ASF F:\VICON\USERDATA\INSTALL\rory3\rory3.ASF
:FULLY-SPECIFIED
:DEGREES
1208
root 1.09381 15.3384 -5.20877 -7.01205 -2.11962 2.76356
lowerback -7.15935 11.68 8.83722
upperback -2.54413 15.1766 -5.93434
thorax 5.12639 7.76826 -8.89998
lowerneck 3.77407 -8.14224 -14.5169
upperneck 49.1237 -2.78319 -15.335
head 18.8137 -5.34575 -5.34788
rclavicle -3.37934e-014 5.725e-014
rhumerus 67.2718 -3.43136 -72.8302
rradius 146.651
rwrist -64.4622
rhand 1.56816 -38.4916
rfingers 7.12502
rthumb 27.0915 -66.5678
lclavicle -3.37934e-014 5.725e-014
lhumerus -59.0165 -12.9863 81.8936
lradius 35.4937
lwrist 21.3398
lhand -12.8694 -25.1138
lfingers 7.12502
lthumb 13.2191 4.4471
rfemur -13.8147 -33.0151 18.5481
rtibia 66.7632
rfoot -48.3057 -38.0301
rtoes 7.69976
lfemur -34.1854 -20.0341 -4.73879
ltibia 23.7797
lfoot 8.61353 -6.52513
ltoes -15.3947
1209
root 1.09264 15.3378 -5.20861 -7.03005 -2.14249 2.74511
lowerback -7.09839 11.7114 8.89841
upperback -2.62712 15.2203 -5.97577
thorax 5.04128 7.78635 -8.98608
lowerneck 3.9539 -8.14742 -14.4689
upperneck 49.1324 -2.82081 -15.3651
head 18.7654 -5.35477 -5.36302
rclavicle -7.07673e-014 -4.45278e-014
rhumerus 67.1097 -3.47364 -72.8322
rradius 146.708
rwrist -64.5131
rhand 1.43684 -38.6847
rfingers 7.12502
rthumb 26.9659 -66.7804
lclavicle -7.07673e-014 -4.45278e-014
lhumerus -59.1249 -13.0846 81.8403
lradius 35.4612
lwrist 21.3231
lhand -12.5064 -25.3739
lfingers 7.12502
lthumb 13.5689 4.16399
rfemur -13.8249 -32.9564 18.6052
rtibia 66.7672
rfoot -48.1808 -38.2862
rtoes 8.30861
lfemur -34.1314 -20.0109 -4.71758
ltibia 23.7413
lfoot 8.62621 -6.54806
ltoes -15.5419
1210
root 1.09339 15.3348 -5.20991 -6.97175 -2.06815 2.8563
lowerback -7.16661 11.7602 8.84929
upperback -2.75021 15.2896 -6.10983
thorax 4.98854 7.81657 -9.0854
lowerneck 4.32573 -8.15885 -14.3176
upperneck 49.1376 -2.92935 -15.3762
head 18.6477 -5.3698 -5.37551
rclavicle -1.56245e-013 -6.20208e-014
rhumerus 66.9496 -3.70946 -72.9436
rradius 146.696
rwrist -64.7824
rhand 1.24658 -38.9254
rfingers 7.12502
rthumb 26.7838 -67.0491
lclavicle -1.56245e-013 -6.20208e-014
lhumerus -59.3487 -13.377 81.8278
lradius 35.5159
lwrist 21.4034
lhand -12.314 -25.5421
lfingers 7.12502
lthumb 13.7544 3.98331
rfemur -13.9389 -33.0236 18.5083
rtibia 66.8084
rfoot -48.0399 -38.4781
rtoes 8.66706
lfemur -34.2114 -20.0347 -4.83273
ltibia 23.7044
lfoot 8.68351 -6.57389
ltoes -15.6554
1211
root 1.09401 15.3353 -5.20979 -6.95754 -1.96029 3.05058
lowerback -7.23153 11.7674 8.66802
upperback -2.79554 15.3119 -6.2171
thorax 4.9653 7.82474 -9.09226
lowerneck 4.56128 -8.16275 -14.1752
upperneck 49.1069 -2.9876 -15.419
head 18.5451 -5.36909 -5.39997
rclavicle 7.03698e-014 -4.45278e-014
rhumerus 66.8777 -3.89151 -73.0677
rradius 146.641
rwrist -64.9909
rhand 1.18589 -39.0567
rfingers 7.12502
rthumb 26.7258 -67.1893
lclavicle 7.03698e-014 -4.45278e-014
lhumerus -59.5022 -13.5789 81.8629
lradius 35.6128
lwrist 21.4865
lhand -12.3428 -25.5398
lfingers 7.12502
lthumb 13.7267 3.98749
rfemur -13.9377 -33.152 18.2264
rtibia 66.8597
rfoot -48.0633 -38.3641
rtoes 8.61392
lfemur -34.227 -20.0411 -5.09627
ltibia 23.672
lfoot 8.71539 -6.62979
ltoes -15.7538
1212
root 1.09421 15.3361 -5.20843 -6.98462 -1.96775 3.10493
lowerback -7.19626 11.7569 8.59339
upperback -2.75953 15.3056 -6.20677
thorax 4.96123 7.82164 -9.04792
lowerneck 4.39602 -8.1534 -14.1799
upperneck 49.1212 -2.91358 -15.4615
head 18.6031 -5.34579 -5.42736
rclavicle -1.04163e-013 1.27222e-014
rhumerus 66.8629 -3.76922 -72.9731
rradius 146.687
rwrist -64.8508
rhand 1.13722 -39.1795
rfingers 7.12502
rthumb 26.6792 -67.3191
lclavicle -1.04163e-013 1.27222e-014
lhumerus -59.4233 -13.4969 81.8419
lradius 35.543
lwrist 21.435
lhand -12.3179 -25.7265
lfingers 7.12502
lthumb 13.7506 3.79913
rfemur -13.8966 -33.1476 18.1312
rtibia 66.8921
rfoot -48.2946 -38.0896
rtoes 8.58375
lfemur -34.1672 -19.9784 -5.19306
ltibia 23.6346
lfoot 8.73567 -6.67792
ltoes -15.7025
1213
root 1.09504 15.3325 -5.2125 -6.97297 -2.02263 2.92892
lowerback -7.10876 11.7793 8.77395
upperback -2.75634 15.3269 -6.14731
thorax 4.95067 7.83403 -9.08986
lowerneck 4.24669 -8.1655 -14.1938
upperneck 49.1468 -2.87408 -15.4984
head 18.6639 -5.33752 -5.4554
rclavicle 3.97569e-016 3.18055e-014
rhumerus 66.8886 -3.70761 -72.8291
rradius 146.718
rwrist -64.7481
rhand 1.11942 -39.3168
rfingers 7.12502
rthumb 26.6621 -67.459
lclavicle 3.97569e-016 3.18055e-014
lhumerus -59.2 -13.3741 81.7632
lradius 35.237
lwrist 21.22
lhand -12.2772 -26.215
lfingers 7.12502
lthumb 13.7899 3.30801
rfemur -13.912 -33.0309 18.375
rtibia 66.8993
rfoot -49.1126 -37.1691
rtoes 9.82769
lfemur -34.1659 -19.9132 -4.97343
ltibia 23.5552
lfoot 8.80809 -6.70241
ltoes -15.5057
1214
root 1.09358 15.3299 -5.22024 -6.99199 -2.01764 2.76039
lowerback -6.97921 11.7891 8.94486
upperback -2.77536 15.337 -6.11296
thorax 4.89542 7.83932 -9.16718
lowerneck 4.26219 -8.17469 -14.2029
upperneck 49.1595 -2.89524 -15.4743
head 18.6683 -5.34473 -5.44534
rclavicle 5.32743e-014 -6.36111e-015
rhumerus 66.9229 -3.78029 -72.7949
rradius 146.693
rwrist -64.7903
rhand 1.19002 -39.3626
rfingers 7.12502
rthumb 26.7297 -67.4945
lclavicle 5.32743e-014 -6.36111e-015
lhumerus -59.016 -13.3011 81.6488
lradius 34.9484
lwrist 21.0131
lhand -12.4543 -26.342
lfingers 7.12502
lthumb 13.6192 3.19246
rfemur -13.9275 -32.9766 18.6248
rtibia 66.8686
rfoot -49.4073 -36.9767
rtoes 10.4594
lfemur -34.179 -19.9031 -4.77107
ltibia 23.5252
lfoot 8.85011 -6.7489
ltoes -15.5315
